<svg width="12" height="13" viewBox="0 0 12 13" fill="none" xmlns="http://www.w3.org/2000/svg">
<path d="M10.9 12.6167L6.88333 8.6C6.55 8.88889 6.16111 9.11389 5.71667 9.275C5.27222 9.43612 4.8 9.51667 4.3 9.51667C3.1 9.51667 2.08333 9.1 1.25 8.26667C0.416667 7.43334 0 6.42778 0 5.25C0 4.07223 0.416667 3.06667 1.25 2.23334C2.08333 1.4 3.09444 0.983337 4.28333 0.983337C5.46111 0.983337 6.46389 1.4 7.29167 2.23334C8.11944 3.06667 8.53333 4.07223 8.53333 5.25C8.53333 5.72778 8.45555 6.18889 8.3 6.63334C8.14444 7.07778 7.91111 7.49445 7.6 7.88334L11.65 11.9C11.75 11.9889 11.8 12.1028 11.8 12.2417C11.8 12.3806 11.7444 12.5056 11.6333 12.6167C11.5333 12.7167 11.4111 12.7667 11.2667 12.7667C11.1222 12.7667 11 12.7167 10.9 12.6167ZM4.28333 8.51667C5.18333 8.51667 5.95 8.19723 6.58333 7.55834C7.21667 6.91945 7.53333 6.15 7.53333 5.25C7.53333 4.35 7.21667 3.58056 6.58333 2.94167C5.95 2.30278 5.18333 1.98334 4.28333 1.98334C3.37222 1.98334 2.59722 2.30278 1.95833 2.94167C1.31944 3.58056 1 4.35 1 5.25C1 6.15 1.31944 6.91945 1.95833 7.55834C2.59722 8.19723 3.37222 8.51667 4.28333 8.51667Z" fill="#DC0A2D"/>
</svg>
