<?xml version="1.0" encoding="UTF-8"?>
<svg width="40px" height="46px" viewBox="0 0 40 46" version="1.1" xmlns="http://www.w3.org/2000/svg" xmlns:xlink="http://www.w3.org/1999/xlink">
    <!-- Generator: Sketch 52.6 (67491) - http://www.bohemiancoding.com/sketch -->
    <title>Group</title>
    <desc>Created with Sketch.</desc>
    <g id="Page-1" stroke="none" stroke-width="1" fill="none" fill-rule="evenodd">
        <g id="Group">
            <g id="book-alt-duotone" fill="#FF7533">
                <path d="M8.57142857,40.25 C6.85714286,40.25 5.71428571,39.1 5.71428571,37.375 C5.71428571,35.65 7.14285714,34.5 8.57142857,34.5 L37.0830357,34.5 C36.9107143,35.9590625 36.9258929,38.8466406 37.1303571,40.25 L8.57142857,40.25 Z" id="Path" opacity="0.4"></path>
                <path d="M8.57142857,34.5 L37.8571429,34.5 C39.0406102,34.5 40,33.534614 40,32.34375 L40,2.875 C40,1.28718134 38.7208136,9.72258517e-17 37.1428571,0 L8.57142857,0 C3.83755929,-2.91677555e-16 5.79731787e-16,3.86154403 0,8.625 L0,37.375 C5.79731787e-16,42.138456 3.83755929,46 8.57142857,46 L37.8571429,46 C39.0406102,46 40,45.034614 40,43.84375 L40,42.40625 C40,41.215386 39.0406102,40.25 37.8571429,40.25 L8.57142857,40.25 C6.85714286,40.25 5.71428571,39.1 5.71428571,37.375 C5.71428571,35.65 7.14285714,34.5 8.57142857,34.5 Z" id="Path"></path>
            </g>
            <g id="code-duotone" transform="translate(8.571429, 7.546875)" fill="#FFFFFF">
                <path d="M15.0521952,0.687891386 C15.1615677,0.719572203 15.2538995,0.793816446 15.3087717,0.894205306 C15.3636439,0.994594166 15.3765355,1.1128562 15.3445955,1.22283824 L10.4772008,18.1041811 C10.4457309,18.2142201 10.3720466,18.3071182 10.2724224,18.3623569 C10.1727983,18.4175957 10.0554315,18.4306302 9.94624471,18.3985814 L7.77107199,17.7631076 C7.66169951,17.7314268 7.56936776,17.6571826 7.51449553,17.5567937 C7.45962329,17.4564049 7.44673172,17.3381428 7.47867172,17.2281608 L12.3460664,0.346817891 C12.3775363,0.236778926 12.4512207,0.143880862 12.5508448,0.0886420835 C12.6504689,0.0334033049 12.7678357,0.0203688406 12.8770225,0.0524176109 L15.0521952,0.687891386 Z" id="Path" opacity="0.598177083"></path>
                <path d="M22.6870515,8.913148 L17.5482951,4.05913362 C17.3753499,3.89721438 17.1052938,3.90521154 16.9420994,4.07708486 L15.3909516,5.74439571 C15.3118411,5.82936755 15.2702693,5.94296767 15.2757108,6.0593059 C15.2811523,6.17564413 15.3331434,6.28480795 15.4198351,6.36191825 L18.6494317,9.22693561 L15.4191219,12.0883627 C15.3317107,12.1650326 15.2791953,12.2743234 15.2737419,12.3909155 C15.2682885,12.5075077 15.3103704,12.6212838 15.3902385,12.7058853 L16.9413862,14.37176 C17.018795,14.455798 17.126272,14.5053163 17.2400382,14.509359 C17.3538044,14.5134018 17.4644813,14.4716357 17.5475819,14.3933015 L22.6863383,9.54287738 C22.7736637,9.46183228 22.8233989,9.34774689 22.8235344,9.22816978 C22.8236698,9.10859268 22.7741931,8.99439339 22.6870515,8.913148 Z M7.43231558,5.74654986 L5.88116782,4.0806751 C5.80327347,3.99713231 5.6955334,3.94827414 5.58177388,3.94490539 C5.46801437,3.94153663 5.35760852,3.98393486 5.27497214,4.06272387 L0.136215734,8.90955775 C0.0494488433,8.99066917 0.000146417818,9.10449492 0.000146417818,9.22370439 C0.000146417818,9.34291386 0.0494488433,9.45673961 0.136215734,9.53785103 L5.27497214,14.3882752 C5.35724909,14.4677911 5.46781184,14.5106813 5.58180929,14.5073055 C5.69580673,14.5039297 5.80367471,14.4545711 5.88116782,14.3703239 L7.43231558,12.7044492 C7.51142613,12.6194773 7.55299789,12.5058772 7.54755639,12.389539 C7.54211489,12.2732008 7.49012377,12.1640369 7.40343214,12.0869266 L4.1720526,9.22693561 L7.40271897,6.3655085 C7.49067602,6.2889084 7.54361929,6.17936799 7.54921171,6.06241282 C7.55480413,5.94545766 7.51255724,5.83130308 7.43231558,5.74654986 Z" id="Shape" fill-rule="nonzero"></path>
            </g>
        </g>
    </g>
</svg>