<?xml version="1.0" encoding="utf-8"?>

<!DOCTYPE svg PUBLIC "-//W3C//DTD SVG 1.1//EN" "http://www.w3.org/Graphics/SVG/1.1/DTD/svg11.dtd">
<!-- Uploaded to: SVG Repo, www.svgrepo.com, Generator: SVG Repo Mixer Tools -->
<svg height="800px" width="800px" version="1.1" id="_x32_" xmlns="http://www.w3.org/2000/svg" xmlns:xlink="http://www.w3.org/1999/xlink" 
	 viewBox="0 0 512 512"  xml:space="preserve">
<style type="text/css">
	.st0{fill:#000000;}
</style>
<g>
	<path class="st0" d="M66.734,401.582c-5.902,0-11.421-1.551-16.135-4.277l139.049-121.182l12.979,11.294
		c10.863,9.44,24.46,14.22,37.93,14.22c13.536,0,27.133-4.78,37.996-14.22l12.973-11.294l47.074,41.038
		c5.324-8.971,11.939-17.054,19.613-24.038l-43.093-37.547L446.977,140.54v127.084c12.26,2.236,23.756,6.62,34.136,12.75V124.834
		c0-4.404-0.43-8.762-1.236-12.979c-2.175-10.925-7.016-20.922-13.778-29.181c-1.43-1.8-2.921-3.411-4.54-5.022
		c-11.978-12.046-28.804-19.56-47.182-19.56H66.734c-18.377,0-35.136,7.514-47.182,19.56c-1.612,1.611-3.102,3.222-4.532,5.022
		c-6.768,8.259-11.609,18.256-13.717,29.181C0.43,116.072,0,120.43,0,124.834v244.162c0,9.367,1.987,18.371,5.526,26.502
		c3.283,7.762,8.131,14.785,14.026,20.673c1.491,1.491,2.981,2.86,4.593,4.224c11.549,9.561,26.454,15.336,42.589,15.336h280.481
		c-8.118-10.032-14.436-21.567-18.412-34.15H66.734z M43.697,101.797c5.962-5.956,13.973-9.561,23.037-9.561h347.645
		c9.065,0,17.142,3.606,23.037,9.561c1.047,1.061,2.042,2.243,2.921,3.418L258.128,264.017c-5.029,4.405-11.24,6.581-17.571,6.581
		c-6.271,0-12.476-2.176-17.572-6.581L40.85,105.148C41.656,103.973,42.65,102.858,43.697,101.797z M34.136,368.997V140.479
		L166,255.51L34.203,370.42C34.136,369.984,34.136,369.494,34.136,368.997z"/>
	<path class="st0" d="M428.285,286.484c-46.235,0-83.702,37.48-83.702,83.715c0,46.228,37.467,83.708,83.702,83.708
		c46.242,0,83.715-37.48,83.715-83.708C512,323.963,474.527,286.484,428.285,286.484z M441.23,410.236h-20.331v-56.421h-0.242
		l-14.744,6.963l-3.076-17.82l20.654-9.441h17.74V410.236z"/>
</g>
</svg>