<?xml version="1.0" encoding="utf-8"?>
<!-- Generator: Adobe Illustrator 27.5.0, SVG Export Plug-In . SVG Version: 6.00 Build 0)  -->
<svg version="1.1" xmlns="http://www.w3.org/2000/svg" xmlns:xlink="http://www.w3.org/1999/xlink" x="0px" y="0px"
	 viewBox="0 0 500 500" style="enable-background:new 0 0 500 500;" xml:space="preserve">
<g id="Background_Complete">
	<g>
		<rect y="382.398" style="fill:#EBEBEB;" width="500" height="0.25"/>
		<rect x="290.208" y="389.208" style="fill:#EBEBEB;" width="25.459" height="0.25"/>
		<rect x="395.111" y="394.619" style="fill:#EBEBEB;" width="60.333" height="0.25"/>
		<rect x="222.459" y="389.333" style="fill:#EBEBEB;" width="62.333" height="0.25"/>
		<rect x="169" y="396.814" style="fill:#EBEBEB;" width="13.041" height="0.25"/>
		<rect x="194.708" y="396.814" style="fill:#EBEBEB;" width="59.376" height="0.25"/>
		<rect x="52.459" y="392.592" style="fill:#EBEBEB;" width="38.454" height="0.25"/>
		<path style="fill:#EBEBEB;" d="M237.014,337.8H43.915c-3.147,0-5.708-2.561-5.708-5.708V60.66c0-3.147,2.561-5.708,5.708-5.708
			h193.099c3.146,0,5.707,2.561,5.707,5.708v271.432C242.721,335.239,240.16,337.8,237.014,337.8z M43.915,55.203
			c-3.01,0-5.458,2.448-5.458,5.458v271.432c0,3.01,2.448,5.458,5.458,5.458h193.099c3.009,0,5.457-2.448,5.457-5.458V60.66
			c0-3.009-2.448-5.458-5.457-5.458H43.915z"/>
		<path style="fill:#EBEBEB;" d="M453.31,337.8H260.212c-3.147,0-5.707-2.561-5.707-5.708V60.66c0-3.147,2.561-5.708,5.707-5.708
			H453.31c3.148,0,5.708,2.561,5.708,5.708v271.432C459.019,335.239,456.458,337.8,453.31,337.8z M260.212,55.203
			c-3.009,0-5.457,2.448-5.457,5.458v271.432c0,3.01,2.448,5.458,5.457,5.458H453.31c3.01,0,5.458-2.448,5.458-5.458V60.66
			c0-3.009-2.448-5.458-5.458-5.458H260.212z"/>
	</g>
	<g>
		<g>
			<g>
				<polygon style="fill:#E6E6E6;" points="195.962,295.667 129.561,295.667 125.53,249.167 191.931,249.167 				"/>
				<polygon style="fill:#F0F0F0;" points="199.401,295.667 133.001,295.667 128.97,249.167 195.37,249.167 				"/>
				<polygon style="fill:#FFFFFF;" points="142.077,285.681 139.863,259.152 186.293,259.152 188.506,285.681 				"/>
			</g>
			<g>
				<rect x="203.099" y="295.667" style="fill:#E6E6E6;" width="7.791" height="86.73"/>
				<rect x="207.938" y="295.667" style="fill:#F0F0F0;" width="5.411" height="86.73"/>
				
					<rect x="137.939" y="295.667" transform="matrix(-1 -1.224647e-16 1.224647e-16 -1 351.2875 600.9061)" style="fill:#F0F0F0;" width="75.409" height="9.573"/>
				<rect x="132.814" y="305.239" style="fill:#E6E6E6;" width="7.791" height="77.157"/>
				<rect x="137.653" y="305.239" style="fill:#F0F0F0;" width="5.411" height="77.157"/>
				<rect x="77.357" y="305.239" style="fill:#E6E6E6;" width="7.791" height="77.157"/>
				<rect x="82.196" y="305.239" style="fill:#F0F0F0;" width="5.411" height="77.157"/>
				<rect x="153.796" y="305.239" style="fill:#E6E6E6;" width="7.791" height="77.157"/>
				<rect x="158.635" y="305.239" style="fill:#F0F0F0;" width="5.411" height="77.157"/>
				<rect x="77.357" y="295.667" style="fill:#E6E6E6;" width="60.582" height="9.573"/>
			</g>
		</g>
		<g>
			<g>
				<rect x="129.508" y="79.414" style="fill:#E0E0E0;" width="234.33" height="130.456"/>
				<rect x="130.691" y="79.414" style="fill:#F5F5F5;" width="246.015" height="130.456"/>
				
					<rect x="192.49" y="25.653" transform="matrix(-1.836970e-16 1 -1 -1.836970e-16 398.3402 -109.0576)" style="fill:#FFFFFF;" width="122.417" height="237.976"/>
				<polygon style="fill:#F5F5F5;" points="231.066,205.85 275.996,83.433 201.846,83.433 156.916,205.85 				"/>
				<polygon style="fill:#F5F5F5;" points="302.441,205.85 347.37,83.433 291.434,83.433 246.505,205.85 				"/>
			</g>
		</g>
		<g>
			<g>
				<rect x="418.192" y="257.803" style="fill:#E6E6E6;" width="19.919" height="124.595"/>
				<polygon style="fill:#FAFAFA;" points="432.874,382.398 438.111,382.398 438.111,372.805 427.382,372.805 				"/>
				<rect x="234.535" y="257.803" style="fill:#E6E6E6;" width="19.919" height="124.595"/>
				<rect x="249.883" y="257.803" style="fill:#FAFAFA;" width="188.228" height="122.007"/>
				<path style="fill:#E6E6E6;" d="M434.548,297.169H253.446v-34.458h181.102V297.169z M254.446,296.169h179.102v-32.458H254.446
					V296.169z"/>
				<path style="fill:#E6E6E6;" d="M402.667,279.441H288.845c-5.286,0-10.375-4.264-13.96-11.698l-0.346-0.717h142.435l-0.346,0.717
					C413.043,275.177,407.954,279.441,402.667,279.441z M276.141,268.026c3.384,6.631,7.984,10.415,12.704,10.415h113.822
					c4.72,0,9.321-3.784,12.705-10.415H276.141z"/>
				<polygon style="fill:#FAFAFA;" points="255.121,382.398 249.883,382.398 249.883,372.805 260.612,372.805 				"/>
				<path style="fill:#E6E6E6;" d="M434.548,336.036H253.446v-34.458h181.102V336.036z M254.446,335.036h179.102v-32.458H254.446
					V335.036z"/>
				<path style="fill:#E6E6E6;" d="M402.667,318.307H288.845c-5.286,0-10.375-4.264-13.96-11.698l-0.346-0.717h142.435l-0.346,0.717
					C413.043,314.044,407.954,318.307,402.667,318.307z M276.141,306.892c3.384,6.631,7.984,10.415,12.704,10.415h113.822
					c4.721,0,9.321-3.784,12.705-10.415H276.141z"/>
				<path style="fill:#E6E6E6;" d="M434.548,374.902H253.446v-34.459h181.102V374.902z M254.446,373.902h179.102v-32.459H254.446
					V373.902z"/>
				<path style="fill:#E6E6E6;" d="M402.667,357.173H288.845c-5.286,0-10.375-4.264-13.96-11.698l-0.346-0.717h142.435l-0.346,0.717
					C413.043,352.91,407.954,357.173,402.667,357.173z M276.141,345.758c3.384,6.631,7.984,10.415,12.704,10.415h113.822
					c4.721,0,9.321-3.784,12.705-10.415H276.141z"/>
			</g>
		</g>
		<g>
			<polygon style="fill:#E6E6E6;" points="120.983,274.283 120.983,276.701 119.435,276.701 118.157,295.667 99.322,295.667 
				98.045,276.701 96.497,276.701 96.497,274.283 			"/>
			<path style="fill:#E6E6E6;" d="M114.784,227.211c-1.548-11.297-16.795-14.524-36.142-14.938
				c-18.411-0.393-24.308-6.908-24.308-6.908s0.058,26.379,26.587,35.93C106.112,250.364,116.335,238.528,114.784,227.211z"/>
			<path style="fill:#E6E6E6;" d="M105.379,252.824c0.323-4.647,7.742-13.186,25.587-9.304c12.904,2.807,17.701-3.882,17.701-3.882
				s-1.195,18.879-20.601,24.555C109.638,269.583,104.81,260.996,105.379,252.824z"/>
			<path style="fill:#E6E6E6;" d="M109.45,281.404c0.195,0,0.389-0.083,0.526-0.244c1.294-1.529,0.235-5.19-1.229-10.258
				c-1.88-6.504-4.219-14.597-2.238-20.475c1.118-3.318,2.502-6.243,3.839-9.073c2.801-5.924,5.22-11.04,3.202-16.383
				c-0.134-0.356-0.531-0.535-0.887-0.401c-0.355,0.134-0.535,0.531-0.401,0.887c1.811,4.796-0.382,9.435-3.159,15.308
				c-1.292,2.731-2.755,5.827-3.899,9.221c-2.119,6.286,0.287,14.609,2.22,21.297c1.14,3.944,2.318,8.021,1.501,8.987
				c-0.245,0.29-0.209,0.724,0.081,0.97C109.135,281.35,109.293,281.404,109.45,281.404z"/>
		</g>
	</g>
</g>
<g id="Background_Simple" style="display:none;">
	<g style="display:inline;">
		<path style="fill:#407BFF;" d="M401.846,174.319c-6.792,54.216-54.298,108.35-106.533,143.215
			C160.271,408.349,29.8,254.244,62.722,198.895c24.713-56.144,101.785-40.721,134.573-62.792
			C381.586,11.179,408.24,128.945,401.846,174.319z"/>
		<path style="opacity:0.9;fill:#FFFFFF;" d="M401.846,174.319c-6.792,54.216-54.298,108.35-106.533,143.215
			C160.271,408.349,29.8,254.244,62.722,198.895c24.713-56.144,101.785-40.721,134.573-62.792
			C381.586,11.179,408.24,128.945,401.846,174.319z"/>
	</g>
</g>
<g id="Shadow_1_">
	<ellipse id="_x3C_Path_x3E__191_" style="fill:#F5F5F5;" cx="250" cy="416.238" rx="193.889" ry="11.323"/>
</g>
<g id="Login">
	<g>
		<polygon style="fill:#407BFF;" points="249.96,361.048 107.96,361.048 100.188,132.681 242.188,132.681 		"/>
		<g>
			<polygon style="fill:#407BFF;" points="257.047,353.961 115.047,353.961 107.274,125.594 249.274,125.594 			"/>
			<polygon style="opacity:0.3;fill:#FFFFFF;" points="257.047,353.961 115.047,353.961 107.274,125.594 249.274,125.594 			"/>
		</g>
		<g>
			
				<ellipse transform="matrix(0.7011 -0.7131 0.7131 0.7011 -82.3091 185.8367)" style="fill:#407BFF;" cx="180.503" cy="191.093" rx="39.269" ry="40.629"/>
			<path style="fill:#FFFFFF;" d="M213.469,191.089c0.194,5.693-1.068,11.038-3.449,15.703
				c-5.211,10.275-15.862,17.263-28.395,17.263c-12.532,0-23.659-6.988-29.57-17.263c-2.698-4.664-4.324-10.009-4.518-15.703
				c-0.62-18.21,13.635-32.966,31.844-32.966C197.59,158.123,212.849,172.879,213.469,191.089z"/>
			<path style="opacity:0.6;fill:#407BFF;" d="M210.019,206.792c-5.211,10.275-15.862,17.263-28.395,17.263
				c-12.532,0-23.659-6.988-29.57-17.263c8.111-5.544,17.96-8.781,28.683-8.781C191.462,198.011,201.531,201.247,210.019,206.792z"
				/>
			
				<ellipse transform="matrix(0.7011 -0.7131 0.7131 0.7011 -74.3786 182.1882)" style="opacity:0.6;fill:#407BFF;" cx="180.119" cy="179.811" rx="14.437" ry="14.937"/>
		</g>
		<polygon style="fill:#FFFFFF;" points="228.524,271.261 137.94,271.261 137.327,253.261 227.912,253.261 		"/>
		<polygon style="fill:#FFFFFF;" points="229.62,303.434 139.035,303.434 138.422,285.434 229.007,285.434 		"/>
		<path style="fill:#407BFF;" d="M194.658,287.908l-21.829,2.968c-0.897,0.122-1.487,0.939-1.317,1.807l2.866,14.628
			c0.171,0.874,1.042,1.486,1.939,1.365l21.829-2.968c0.897-0.122,1.488-0.933,1.317-1.807l-2.866-14.628
			C196.427,288.404,195.555,287.786,194.658,287.908z M188.386,302.727l-3.952,0.538l-0.398-4.721
			c-0.841-0.371-1.45-1.117-1.622-1.996c-0.28-1.43,0.686-2.755,2.153-2.955c1.462-0.199,2.883,0.802,3.164,2.232
			c0.172,0.879-0.121,1.747-0.776,2.322L188.386,302.727z"/>
		<path style="fill:#407BFF;" d="M192.504,287.124L192.504,287.124c-0.798,0.108-1.568-0.434-1.72-1.211l-0.281-1.432
			c-0.772-3.941-4.54-6.916-8.619-6.561c-4.36,0.38-7.283,4.23-6.467,8.394l0.322,1.645c0.152,0.777-0.371,1.495-1.169,1.603l0,0
			c-0.798,0.108-1.568-0.434-1.72-1.211l-0.273-1.396c-1.076-5.492,2.381-10.772,7.974-11.745c5.88-1.024,11.678,2.942,12.799,8.665
			l0.322,1.645C193.824,286.297,193.301,287.015,192.504,287.124z"/>
		<polygon style="fill:#407BFF;" points="214.667,328.639 155.703,328.639 155.305,316.922 214.268,316.922 		"/>
		<path style="fill:#263238;" d="M186.218,262.261c0.062,1.818-1.362,3.292-3.18,3.292s-3.342-1.474-3.404-3.292
			c-0.062-1.818,1.362-3.292,3.18-3.292S186.156,260.443,186.218,262.261z"/>
		<path style="fill:#263238;" d="M172.045,262.261c0.062,1.818-1.362,3.292-3.18,3.292c-1.818,0-3.342-1.474-3.404-3.292
			c-0.062-1.818,1.362-3.292,3.18-3.292S171.983,260.443,172.045,262.261z"/>
		<path style="fill:#263238;" d="M157.872,262.261c0.062,1.818-1.362,3.292-3.18,3.292c-1.818,0-3.342-1.474-3.404-3.292
			c-0.062-1.818,1.362-3.292,3.18-3.292C156.286,258.969,157.81,260.443,157.872,262.261z"/>
		<path style="fill:#263238;" d="M200.391,262.261c0.062,1.818-1.362,3.292-3.18,3.292s-3.342-1.474-3.404-3.292
			c-0.062-1.818,1.362-3.292,3.18-3.292C198.805,258.969,200.329,260.443,200.391,262.261z"/>
		<path style="fill:#263238;" d="M214.564,262.261c0.062,1.818-1.362,3.292-3.18,3.292c-1.818,0-3.342-1.474-3.404-3.292
			c-0.062-1.818,1.362-3.292,3.18-3.292S214.503,260.443,214.564,262.261z"/>
	</g>
</g>
<g id="Character_1_">
	<g>
		<path style="fill:#FF8B7B;" d="M333.91,174.281c1.333,2.135,2.435,4.184,3.579,6.311c1.139,2.106,2.169,4.273,3.18,6.456
			c1.989,4.383,3.769,8.905,5.099,13.731c0.178,0.592,0.314,1.22,0.462,1.835l0.219,0.925l0.109,0.462l0.13,0.762
			c0.286,2.032,0.035,3.689-0.312,5.151c-0.717,2.914-1.873,5.238-3.112,7.456c-2.529,4.391-5.481,8.131-8.886,11.673l-4.211-3.188
			c2.076-3.94,4.128-8.068,5.637-12.037c0.731-1.974,1.346-3.983,1.526-5.632c0.087-0.811,0.029-1.508-0.083-1.767l-0.395-1.222
			c-0.164-0.502-0.31-1.001-0.508-1.507c-1.441-4.035-3.274-8.088-5.269-12.084c-1.967-3.981-4.147-8.034-6.293-11.817
			L333.91,174.281z"/>
		<path style="fill:#FF8B7B;" d="M331.236,224.425l-4.591,2.437l5.278,6.18c0,0,3.295-2.229,3.444-5.633L331.236,224.425z"/>
		<polygon style="fill:#FF8B7B;" points="320.466,230.673 326.122,235.16 331.923,233.043 326.644,226.863 		"/>
		<path style="fill:#263238;" d="M301.151,141.564c-0.113,0.556-0.499,0.947-0.863,0.873c-0.363-0.074-0.566-0.584-0.453-1.14
			c0.113-0.556,0.499-0.947,0.863-0.873C301.061,140.498,301.264,141.009,301.151,141.564z"/>
		<path style="fill:#FF5652;" d="M300.703,142.522c0,0-1.916,2.95-3.622,4.215c0.797,1.118,2.555,1.038,2.555,1.038L300.703,142.522
			z"/>
		<path style="fill:#FF8B7B;" d="M298.901,162.138l0.043-6.554l8.68,1.049c0,0-0.149,5.636-4.996,7.293L298.901,162.138z"/>
		<polygon style="fill:#FF8B7B;" points="301.396,150.864 307.508,152.62 307.625,156.633 298.944,155.584 		"/>
		<path style="opacity:0.2;" d="M307.51,152.62l-6.11-1.76l-1.19,2.28c0.15,3.87,2.51,7.05,5.64,8.48c1.7-2.23,1.77-4.99,1.77-4.99
			L307.51,152.62z"/>
		<path style="fill:#263238;" d="M303.814,138.891c0.081,0,0.162-0.029,0.226-0.089c0.135-0.125,0.143-0.336,0.018-0.471
			c-1.251-1.354-2.769-1.113-2.835-1.102c-0.181,0.031-0.303,0.203-0.272,0.384c0.031,0.181,0.205,0.302,0.383,0.273l0,0
			c0.05-0.008,1.237-0.182,2.235,0.898C303.635,138.855,303.724,138.891,303.814,138.891z"/>
		<path style="fill:#FF8B7B;" d="M316.591,151.683c-1.009,5.146-1.618,12.275,1.982,15.709c0,0-1.407,5.22-10.968,5.22
			c-10.514,0-5.058-4.581-5.058-4.581c4.37-1.356,4.332-6.334,3.332-10.333L316.591,151.683z"/>
		<path style="fill:#407BFF;" d="M320.542,170.833c0.936-1.326,0.899-5.515-0.101-6.254c-1.614-1.193-8.517-1.467-17.816,0.671
			c1.001,4.058-1.143,6.185-1.143,6.185L320.542,170.833z"/>
		<path style="fill:#407BFF;" d="M351.795,408.237c-0.706,0.153-1.411,0.193-1.751-0.096c-0.143-0.122-0.286-0.354-0.161-0.774
			c0.066-0.221,0.21-0.386,0.429-0.49c0.95-0.453,3.132,0.436,3.225,0.474c0.061,0.025,0.101,0.083,0.103,0.149
			c0.002,0.066-0.035,0.126-0.094,0.155C353.212,407.816,352.504,408.084,351.795,408.237z M350.651,407.113
			c-0.072,0.016-0.137,0.037-0.195,0.065c-0.132,0.063-0.215,0.156-0.253,0.284c-0.089,0.3,0.022,0.394,0.059,0.425
			c0.378,0.322,1.783,0.025,2.772-0.371C352.362,407.28,351.276,406.978,350.651,407.113z"/>
		<path style="fill:#407BFF;" d="M353.509,407.668c-0.027,0.006-0.055,0.005-0.082-0.003c-0.795-0.232-2.496-1.441-2.517-2.238
			c-0.004-0.145,0.047-0.407,0.426-0.539c0.246-0.086,0.494-0.066,0.738,0.059c0.94,0.48,1.534,2.428,1.559,2.511
			c0.018,0.059,0.002,0.122-0.041,0.165C353.568,407.646,353.54,407.661,353.509,407.668z M351.518,405.182
			c-0.024,0.005-0.049,0.012-0.073,0.02c-0.206,0.072-0.203,0.173-0.202,0.216c0.012,0.472,1.135,1.42,1.958,1.804
			c-0.206-0.562-0.676-1.671-1.278-1.978C351.785,405.173,351.652,405.153,351.518,405.182z"/>
		<path style="fill:#407BFF;" d="M299.865,409.417c-0.903,0-1.775-0.124-2.067-0.53c-0.102-0.142-0.183-0.384,0.014-0.728
			c0.11-0.193,0.288-0.324,0.528-0.39c1.171-0.318,3.629,1.082,3.733,1.142c0.06,0.035,0.092,0.103,0.081,0.171
			s-0.064,0.123-0.132,0.137C301.573,409.309,300.706,409.417,299.865,409.417z M298.749,408.053c-0.117,0-0.226,0.012-0.322,0.038
			c-0.154,0.042-0.26,0.118-0.326,0.233c-0.118,0.207-0.075,0.31-0.032,0.368c0.327,0.455,2.105,0.465,3.413,0.28
			C300.829,408.638,299.571,408.053,298.749,408.053z"/>
		<path style="fill:#407BFF;" d="M301.989,409.223c-0.023,0-0.046-0.005-0.068-0.015c-0.849-0.381-2.531-1.902-2.402-2.698
			c0.03-0.187,0.163-0.419,0.62-0.466c0.342-0.035,0.651,0.062,0.924,0.286c0.895,0.735,1.084,2.629,1.092,2.71
			c0.006,0.059-0.021,0.117-0.069,0.151C302.058,409.212,302.023,409.223,301.989,409.223z M300.273,406.371
			c-0.033,0-0.066,0.002-0.1,0.005c-0.3,0.03-0.319,0.148-0.325,0.187c-0.077,0.477,1.065,1.673,1.932,2.193
			c-0.09-0.553-0.341-1.687-0.928-2.169C300.675,406.443,300.484,406.371,300.273,406.371z"/>
		<polygon style="fill:#FF8B7B;" points="309.724,409.056 302.69,409.056 301.99,392.768 309.023,392.768 		"/>
		<polygon style="fill:#FF8B7B;" points="361.349,405.8 354.475,407.288 347.573,392.117 354.447,390.628 		"/>
		<path style="fill:#263238;" d="M353.814,406.598l7.723-1.672c0.281-0.061,0.567,0.082,0.687,0.343l2.681,5.817
			c0.278,0.603-0.09,1.311-0.742,1.44c-2.706,0.537-4.05,0.663-7.447,1.398c-2.09,0.452-6.807,1.602-9.692,2.226
			c-2.822,0.611-3.88-2.147-2.755-2.661c5.046-2.305,7.154-4.335,8.52-6.227C353.036,406.921,353.403,406.687,353.814,406.598z"/>
		<path style="fill:#263238;" d="M302.736,408.242h7.681c0.288,0,0.536,0.2,0.599,0.48l1.389,6.252
			c0.144,0.648-0.348,1.262-1.012,1.251c-2.771-0.047-6.775-0.21-10.257-0.21c-4.072,0-7.589,0.222-12.365,0.222
			c-2.888,0-3.689-2.919-2.48-3.184c5.503-1.204,9.995-1.333,14.75-4.264C301.559,408.471,302.129,408.242,302.736,408.242z"/>
		<g>
			<path style="fill:#407BFF;" d="M331.167,168.982c6.592,1.511,12.028,18.341,12.028,18.341l-13.238,10.09
				c0,0-4.859-4.581-7.021-12.999C320.669,175.593,324.426,167.437,331.167,168.982z"/>
			<path style="opacity:0.4;" d="M331.167,168.982c6.592,1.511,12.028,18.341,12.028,18.341l-13.238,10.09
				c0,0-4.859-4.581-7.021-12.999C320.669,175.593,324.426,167.437,331.167,168.982z"/>
		</g>
		<path style="fill:#FF8B7B;" d="M296.502,189.067c-1.645,1.775-3.285,3.354-4.984,4.979c-0.843,0.808-1.705,1.6-2.586,2.377
			l-1.328,1.163l-0.334,0.289c-0.162,0.139-0.359,0.304-0.57,0.465c-0.44,0.325-0.922,0.704-1.932,1.141
			c-0.535,0.206-1.223,0.479-2.432,0.503c-0.575,0.009-1.355-0.091-2.1-0.373c-0.761-0.282-1.497-0.77-2.001-1.272
			c-1.046-1.051-1.362-1.973-1.568-2.59c-0.191-0.636-0.246-1.09-0.285-1.487c-0.063-0.776-0.023-1.301,0.02-1.787
			c0.047-0.48,0.113-0.895,0.186-1.287c0.294-1.542,0.71-2.786,1.161-4.032c0.457-1.233,0.963-2.417,1.554-3.614
			c0.635-1.274,1.248-2.198,1.859-3.263c2.471-4.13,5.371-7.902,8.452-11.457c3.148-3.531,6.452-6.759,10.251-9.717l3.681,3.787
			c-2.586,3.459-5.128,7.166-7.477,10.822c-2.347,3.683-4.524,7.433-6.398,11.246c-0.432,0.942-0.965,1.974-1.265,2.762
			c-0.351,0.861-0.673,1.786-0.938,2.697c-0.262,0.9-0.473,1.838-0.568,2.526c-0.022,0.166-0.033,0.311-0.033,0.395
			c-0.003,0.077,0.017,0.12,0.007-0.093c-0.01-0.116-0.021-0.289-0.129-0.655c-0.122-0.348-0.312-1.007-1.154-1.859
			c-0.406-0.399-1.016-0.817-1.648-1.043c-0.611-0.239-1.25-0.309-1.684-0.307c-0.925,0.021-1.338,0.21-1.612,0.308
			c-0.49,0.212-0.5,0.269-0.495,0.247l0.384-0.35l1.201-1.1l2.391-2.239c1.582-1.491,3.174-3.081,4.677-4.557L296.502,189.067z"/>
		<path style="opacity:0.2;" d="M325.517,181.358c3.581,3.543,4.749,9.996,5.027,15.606l-0.584,0.45c0,0-4.864-4.586-7.028-13.002
			c-0.134-0.526-0.249-1.053-0.345-1.57L325.517,181.358z"/>
		<g>
			<path style="fill:#407BFF;" d="M289.508,176.035c-1.438,7.599-2.338,23.203,1.837,54.105h37.621
				c0.259-5.775-3.37-33.947,2.201-61.158c0,0-6.449-1.294-12.594-1.59c-4.807-0.232-11.767-0.385-15.993,0.001
				c-1.764,0.161-3.495,0.416-5.038,0.689C293.474,168.801,290.276,171.976,289.508,176.035z"/>
			<path style="opacity:0.4;" d="M289.508,176.035c-1.438,7.599-2.338,23.203,1.837,54.105h37.621
				c0.259-5.775-3.37-33.947,2.201-61.158c0,0-6.449-1.294-12.594-1.59c-4.807-0.232-11.767-0.385-15.993,0.001
				c-1.764,0.161-3.495,0.416-5.038,0.689C293.474,168.801,290.276,171.976,289.508,176.035z"/>
		</g>
		<path style="opacity:0.2;" d="M295.265,187.266l-6.798-1.628c-0.211,4.117-0.23,9.22,0.077,15.53
			C291.675,197.606,295.667,192.053,295.265,187.266z"/>
		<g>
			<polygon style="opacity:0.2;" points="301.991,392.772 302.351,401.168 309.388,401.168 309.028,392.772 			"/>
			<polygon style="opacity:0.2;" points="354.451,390.632 347.573,392.121 351.134,399.941 358.012,398.452 			"/>
		</g>
		<path style="fill:#FF8B7B;" d="M319.934,144.155c-1.807,6.743-2.522,10.781-6.683,13.585c-6.259,4.217-14.051-0.623-14.295-7.77
			c-0.219-6.433,2.773-16.379,10.008-17.738C316.093,130.894,321.741,137.412,319.934,144.155z"/>
		<path style="fill:#263238;" d="M304.147,144.414c-0.334-0.904-1.892-7.872-0.43-9.681c1.463-1.809,18.111-0.508,20.573,1.915
			c4.084,4.019,1.251,7.606-3.22,12.234c-3.363,3.48-3.492,7.403-5.188,7.978c-2.972,1.009-7.581,0.061-8.505-3.112
			C306.453,150.576,304.147,144.414,304.147,144.414z"/>
		<path style="fill:#263238;" d="M322.274,128.722c-5.885-2.506-16.917,0.266-22.875-1.17c-0.213,3.085,1.649,8.032,7.606,9.362
			c0,0,8.457,1.649,15,1.383C328.548,138.031,327.271,130.85,322.274,128.722z"/>
		<path style="fill:#263238;" d="M323.194,136.861c0,0,3.639,0.41,6.222-1.194C330.521,138.326,324.472,139.056,323.194,136.861z"/>
		<path style="fill:#FF8B7B;" d="M307.354,144.691c-0.109,1.825-0.956,3.542-1.976,4.666c-1.533,1.689-3.133,0.638-3.405-1.42
			c-0.245-1.852,0.258-4.963,2.133-5.894C305.953,141.124,307.478,142.604,307.354,144.691z"/>
		<path style="fill:#407BFF;" d="M304.69,230.14c0,0,7.982,53.753,12.365,73.891c4.799,22.053,30.531,95.014,30.531,95.014
			l12.591-2.726c0,0-17.993-59.458-22.021-90.289c-3.094-23.682-9.19-75.89-9.19-75.89H304.69z"/>
		<path style="fill:#263238;" d="M344.571,394.842c-0.054,0.012,2.347,4.553,2.347,4.553l14.166-3.067l-1.194-4.259L344.571,394.842
			z"/>
		<path style="opacity:0.3;" d="M309.735,249.292c9.23,1.81,8.253,36.23,7.143,53.933c-2.662-12.514-6.558-36.594-9.22-53.684
			C308.27,249.235,308.96,249.139,309.735,249.292z"/>
		<path style="fill:#407BFF;" d="M291.345,230.14c0,0-0.969,52.59-0.204,74.039c0.796,22.311,8.589,95.363,8.589,95.363h11.915
			c0,0,0.437-71.748,0.967-93.66c0.578-23.887,3.462-75.742,3.462-75.742H291.345z"/>
		<path style="fill:#263238;" d="M297.437,394.796c-0.055,0,0.672,4.947,0.672,4.947h14.494l0.392-4.415L297.437,394.796z"/>
		<g>
			<path style="fill:#407BFF;" d="M304.252,178.342c3.373,9.089-16.442,19.795-16.442,19.795l-8.578-11.028
				c0,0,5.723-11.39,12.746-16.525C300.653,164.241,301.684,171.423,304.252,178.342z"/>
			<path style="opacity:0.4;" d="M304.252,178.342c3.373,9.089-16.442,19.795-16.442,19.795l-8.578-11.028
				c0,0,5.723-11.39,12.746-16.525C300.653,164.241,301.684,171.423,304.252,178.342z"/>
		</g>
	</g>
</g>
<g id="Thinking">
	<g>
		<ellipse style="fill:#407BFF;" cx="381.875" cy="86.333" rx="36.087" ry="23"/>
		<path style="fill:#FFFFFF;" d="M368.846,97.91c-2.005,0-3.962-0.6-5.662-1.759c-2.28-1.554-3.795-3.91-4.266-6.634
			c-0.898-5.207,2.56-10.395,7.709-11.565l0,0c4.24-0.961,8.546,0.846,10.823,4.517l23.167-4.781
			c1.877-0.387,3.784,0.732,4.246,2.497c0.245,0.938,0.1,1.907-0.41,2.729c-0.511,0.822-1.313,1.381-2.26,1.577l-0.608,0.126
			c-0.182,0.037-0.33,0.147-0.418,0.309c-0.088,0.16-0.101,0.349-0.035,0.519l0.408,1.062c0.277,0.719,0.019,1.528-0.616,1.923
			c-0.494,0.308-0.83,0.836-0.897,1.414c-0.082,0.708-0.555,1.253-1.204,1.387l-0.477,0.098c-0.647,0.132-1.297-0.178-1.654-0.796
			c-0.418-0.722-1.248-1.094-2.068-0.924c-0.823,0.17-1.442,0.841-1.542,1.67c-0.085,0.709-0.558,1.253-1.205,1.386l-0.467,0.096
			c-0.641,0.133-1.297-0.179-1.654-0.796c-0.293-0.504-0.813-0.856-1.392-0.942c-0.739-0.11-1.298-0.75-1.329-1.522l-0.046-1.137
			c-0.007-0.185-0.091-0.349-0.236-0.462c-0.145-0.114-0.319-0.155-0.507-0.119l-7.382,1.524c-0.626,4.183-3.779,7.532-7.951,8.393
			C370.224,97.839,369.532,97.91,368.846,97.91z M366.848,78.927c-4.639,1.054-7.754,5.729-6.943,10.42
			c0.423,2.455,1.788,4.577,3.843,5.978s4.527,1.896,6.964,1.393c3.865-0.798,6.762-3.968,7.206-7.888l0.041-0.36l8.085-1.669
			c0.467-0.097,0.95,0.017,1.325,0.311c0.375,0.293,0.6,0.734,0.62,1.21l0.046,1.137c0.011,0.288,0.216,0.535,0.476,0.573
			c0.891,0.133,1.659,0.654,2.11,1.43c0.11,0.19,0.319,0.373,0.588,0.318l0.467-0.096c0.265-0.055,0.388-0.307,0.414-0.525
			c0.149-1.256,1.087-2.273,2.333-2.53c1.242-0.256,2.501,0.308,3.135,1.402c0.11,0.19,0.318,0.375,0.587,0.318l0.478-0.098
			c0.265-0.055,0.387-0.306,0.411-0.523c0.104-0.892,0.602-1.674,1.364-2.147c0.224-0.139,0.313-0.446,0.21-0.714l-0.408-1.063
			c-0.171-0.445-0.138-0.939,0.091-1.357c0.229-0.417,0.627-0.712,1.094-0.808l0.608-0.126c0.676-0.139,1.248-0.539,1.612-1.124
			c0.364-0.586,0.468-1.278,0.293-1.948c-0.33-1.258-1.713-2.054-3.078-1.77l-23.869,4.926l-0.18-0.314
			C374.768,79.784,370.786,78.032,366.848,78.927L366.848,78.927z M368.859,94.213c-1.238,0-2.449-0.36-3.508-1.056
			c-1.43-0.941-2.407-2.381-2.752-4.056c-0.347-1.678-0.02-3.389,0.921-4.817c0.94-1.427,2.381-2.403,4.057-2.749
			c1.678-0.347,3.389-0.021,4.816,0.918c1.427,0.938,2.403,2.38,2.749,4.059c0.347,1.675,0.02,3.385-0.918,4.813
			c-0.939,1.43-2.381,2.408-4.06,2.754l0,0C369.73,94.169,369.293,94.213,368.859,94.213z M368.889,82.4
			c-0.369,0-0.74,0.038-1.11,0.114c-1.414,0.292-2.63,1.116-3.423,2.32c-0.793,1.205-1.069,2.648-0.777,4.065
			c0.292,1.413,1.116,2.628,2.323,3.422c1.206,0.793,2.649,1.07,4.063,0.778l0,0c1.416-0.292,2.632-1.118,3.425-2.324
			c0.792-1.205,1.067-2.647,0.775-4.062c-0.293-1.417-1.116-2.634-2.32-3.426C370.954,82.704,369.933,82.4,368.889,82.4z"/>
		<ellipse style="opacity:0.6;fill:#407BFF;" cx="352.495" cy="115.258" rx="11.861" ry="7.56"/>
		<ellipse style="opacity:0.3;fill:#407BFF;" cx="333.629" cy="122.817" rx="4.869" ry="3.103"/>
	</g>
</g>
</svg>
