<svg xmlns="http://www.w3.org/2000/svg" width="159" height="49" fill="none" viewBox="0 0 159 49"><path fill="#FE5005" d="M68.597 35.236c-2.126 0-3.916-.456-5.376-1.368-1.459-.931-2.5-2.227-3.13-3.888l4.191-2.429c.85 1.963 2.338 2.947 4.464 2.947 1.925 0 2.885-.576 2.885-1.732 0-.648-.312-1.133-.94-1.46-.649-.384-1.8-.801-3.462-1.243-1.699-.465-3.139-1.133-4.31-2.001-1.296-1.052-1.944-2.54-1.944-4.464 0-1.925.696-3.533 2.093-4.704 1.416-1.176 3.096-1.762 5.04-1.762 1.742 0 3.278.413 4.613 1.243 1.334.811 2.39 1.992 3.158 3.552l-4.1 2.4c-.767-1.641-1.991-2.457-3.671-2.457-.71 0-1.267.153-1.67.456-.404.302-.61.686-.61 1.152 0 .504.245.96.73 1.368.527.403 1.56.83 3.095 1.276l1.973.639c.504.163 1.095.437 1.762.82.73.365 1.277.759 1.641 1.186.97 1.051 1.46 2.367 1.46 3.946 0 2.001-.73 3.605-2.184 4.795-1.46 1.152-3.36 1.733-5.708 1.733v-.005Zm23.482-7.469 2.184-8.136h4.858l-4.858 15.183H90.01l-2.429-8.108-2.428 8.108H80.9L76.042 19.63H80.9l2.184 8.136 2.366-8.136h4.253l2.366 8.136h.01Zm12.432-10.262a2.594 2.594 0 0 1-1.91.787 2.72 2.72 0 0 1-1.944-.787 2.701 2.701 0 0 1-.788-1.944c0-.749.264-1.387.788-1.91.547-.548 1.195-.821 1.944-.821.748 0 1.387.273 1.91.82.547.528.821 1.162.821 1.91 0 .75-.274 1.398-.821 1.945Zm.365 17.304h-4.555V19.626h4.555V34.81Zm13.867-13.632v-1.55h4.43v14.419c0 2.39-.777 4.19-2.337 5.404-1.536 1.234-3.432 1.853-5.679 1.853-3.441 0-5.841-1.224-7.195-3.672l3.888-2.246c.711 1.277 1.863 1.915 3.461 1.915 1.094 0 1.934-.283 2.52-.85.61-.566.912-1.368.912-2.4v-1.396c-1.07 1.315-2.549 1.972-4.43 1.972-2.127 0-3.908-.748-5.343-2.246-1.416-1.498-2.126-3.322-2.126-5.467 0-2.146.71-3.955 2.126-5.434 1.416-1.517 3.197-2.275 5.343-2.275 1.881 0 3.36.658 4.43 1.973Zm-6.317 8.29c.711.647 1.589.969 2.64.969 1.051 0 1.935-.322 2.64-.97.687-.628 1.032-1.478 1.032-2.548s-.345-1.925-1.032-2.55c-.71-.647-1.589-.969-2.64-.969-1.051 0-1.934.322-2.64.97-.686.629-1.032 1.478-1.032 2.549 0 1.07.346 1.924 1.032 2.548Zm24.624-8.29v-1.55h4.431v14.419c0 2.39-.778 4.19-2.338 5.404-1.536 1.234-3.432 1.853-5.678 1.853-3.442 0-5.842-1.224-7.196-3.672l3.888-2.246c.711 1.277 1.863 1.915 3.461 1.915 1.095 0 1.935-.283 2.52-.85.61-.566.912-1.368.912-2.4v-1.396c-1.07 1.315-2.549 1.972-4.43 1.972-2.127 0-3.907-.748-5.343-2.246-1.416-1.498-2.126-3.322-2.126-5.467 0-2.146.71-3.955 2.126-5.434 1.416-1.517 3.197-2.275 5.343-2.275 1.881 0 3.36.658 4.43 1.973Zm-6.317 8.29c.711.647 1.589.969 2.64.969 1.052 0 1.935-.322 2.64-.97.687-.628 1.032-1.478 1.032-2.548s-.345-1.925-1.032-2.55c-.71-.647-1.588-.969-2.64-.969-1.051 0-1.934.322-2.64.97-.686.629-1.032 1.478-1.032 2.549 0 1.07.346 1.924 1.032 2.548Zm20.194-.548 2.856-9.293h4.858l-5.194 14.727c-.85 2.366-1.973 4.07-3.37 5.102-1.377 1.051-3.139 1.527-5.284 1.426v-4.253c1.051 0 1.862-.192 2.428-.576.567-.365 1.023-1.013 1.368-1.944l-6.043-14.482h5.011l3.37 9.293ZM0 24.633C0 14.26 0 9.076 2.798 5.538a12.87 12.87 0 0 1 2.108-2.107C8.438.633 13.627.633 24 .633c10.373 0 15.557 0 19.094 2.798a12.87 12.87 0 0 1 2.108 2.107C48 9.071 48 14.26 48 24.633s0 15.557-2.798 19.094a12.87 12.87 0 0 1-2.108 2.107c-3.532 2.799-8.721 2.799-19.094 2.799-10.373 0-15.557 0-19.094-2.799a12.87 12.87 0 0 1-2.108-2.107C0 40.194 0 35.006 0 24.633Z"/><path fill="#fff" fill-rule="evenodd" d="M25.815 19.66v-4.973a.588.588 0 0 0-.586-.585.588.588 0 0 0-.585.585v5.842c0 .331.269.595.595.595h.571c8.3 0 9.163.432 8.645 2.184-.024.086-.053.168-.082.26l-.014.052c-2.18 6.571-8.074 14.794-9.816 17.146a.611.611 0 0 1-.984 0c-1.051-1.421-3.624-4.992-5.971-9.044-.159-.37-.236-1.233 2.37-1.233h3.188c.178 0 .322.144.322.321v2.573c0 .307.225.59.532.615a.584.584 0 0 0 .466-.173.561.561 0 0 0 .173-.413v-3.49a.608.608 0 0 0-.605-.604h-6.441c-1.124 0-1.805-.96-2.252-1.834-1.401-2.938-2.404-5.837-2.404-8.122 0-5.85 4.665-11.116 11.107-11.116 5.736 0 10.08 4.17 10.963 9.216.005.043.038.235.043.273.23 2.477-6.23 2.194-8.947 2.208a.286.286 0 0 1-.288-.288v.005Z" clip-rule="evenodd"/></svg>