<svg xmlns="http://www.w3.org/2000/svg" width="16" height="17" fill="none" viewBox="0 0 16 17"><path fill="#02060C" fill-opacity=".75" fill-rule="evenodd" d="M1.353 1.415C.44 2.339.124 3.487.065 4.793c-.036.815-.25 6.973.37 8.587a4.06 4.06 0 0 0 2.329 2.353c.506.2 1.084.335 1.932.374 7.088.325 9.716.148 10.824-2.727.197-.511.332-1.096.37-1.953.323-7.201-.053-8.762-1.289-10.012C13.621.424 12.47-.25 4.697.113c-1.303.06-2.431.382-3.343 1.302Zm1.93 12.967a2.621 2.621 0 0 1-1.512-1.527c-.473-1.226-.316-7.054-.274-7.997.042-.924.226-1.768.87-2.42.796-.804 1.824-1.198 8.827-.878.914.042 1.749.228 2.394.878.796.805 1.19 1.855.869 8.923-.035.785-.165 1.21-.274 1.494-.72 1.871-2.378 2.131-9.423 1.804-.776-.036-1.197-.167-1.478-.277Zm8.944-9.602a.961.961 0 0 0 .956-.965.961.961 0 0 0-.956-.966.96.96 0 0 0-.955.966.96.96 0 0 0 .955.965Zm-4.25 7.461c2.258 0 4.088-1.85 4.088-4.132 0-2.281-1.83-4.13-4.088-4.13-2.257 0-4.087 1.849-4.087 4.13 0 2.282 1.83 4.132 4.087 4.132Zm0-6.813c1.466 0 2.654 1.201 2.654 2.682 0 1.48-1.188 2.682-2.654 2.682-1.465 0-2.653-1.201-2.653-2.682 0-1.48 1.188-2.682 2.654-2.682Z" clip-rule="evenodd"/></svg>