<svg xmlns="http://www.w3.org/2000/svg" width="16" height="17" fill="none" viewBox="0 0 16 17"><path fill="#02060C" fill-opacity=".75" d="M16 1.296v13.647a1.176 1.176 0 0 1-1.177 1.176H1.176A1.177 1.177 0 0 1 0 14.943V1.296A1.176 1.176 0 0 1 1.176.119h13.647A1.176 1.176 0 0 1 16 1.296ZM4.706 6.237H2.353v7.53h2.353v-7.53Zm.212-2.588a1.355 1.355 0 0 0-1.346-1.365h-.043a1.365 1.365 0 1 0 0 2.73A1.355 1.355 0 0 0 4.918 3.69V3.65Zm8.73 5.543c0-2.263-1.44-3.143-2.871-3.143a2.682 2.682 0 0 0-2.382 1.214H8.33V6.237H6.118v7.53H8.47V9.761a1.562 1.562 0 0 1 1.411-1.685h.09c.748 0 1.303.47 1.303 1.656v4.033h2.353l.02-4.574Z"/></svg>