<svg xmlns="http://www.w3.org/2000/svg" width="16" height="17" fill="none" viewBox="0 0 16 17"><path fill="#02060C" fill-opacity=".75" fill-rule="evenodd" d="M7.9.013C3.52.013 0 3.608 0 8.086a8.083 8.083 0 0 0 4.714 7.393c0-1.514-.01-1.318 1.128-6.24-.625-1.28-.139-3.392 1.262-3.392 1.944 0 .623 2.92.398 4.07-.199.882.465 1.56 1.262 1.56 1.527 0 2.522-1.967 2.522-4.273 0-1.764-1.194-3.053-3.252-3.053-3.66 0-4.588 4.13-3.32 5.426.32.49 0 .513 0 1.154-.221.677-1.992-.307-1.992-2.849 0-2.306 1.86-5.02 5.644-5.02 2.987 0 4.979 2.239 4.979 4.613 0 3.188-1.727 5.495-4.249 5.495-.863 0-1.66-.475-1.926-1.018-.482 1.901-.58 2.865-1.328 3.934.73.204 1.461.34 2.258.34 4.382 0 7.9-3.596 7.9-8.072-.198-4.546-3.718-8.14-8.1-8.14Z" clip-rule="evenodd"/></svg>