<svg xmlns="http://www.w3.org/2000/svg" width="16" height="14" fill="none" viewBox="0 0 16 14"><path fill="#02060C" fill-opacity=".75" fill-rule="evenodd" d="M5.032 13.604c6.038 0 9.34-4.99 9.34-9.317 0-.142 0-.284-.01-.424A6.659 6.659 0 0 0 16 2.168a6.55 6.55 0 0 1-1.885.515A3.291 3.291 0 0 0 15.558.872c-.644.381-1.35.65-2.084.795a3.292 3.292 0 0 0-4.645-.142 3.274 3.274 0 0 0-.95 3.129 9.331 9.331 0 0 1-6.765-3.422A3.272 3.272 0 0 0 2.13 5.604a3.264 3.264 0 0 1-1.49-.41v.042a3.279 3.279 0 0 0 2.634 3.21c-.484.131-.99.15-1.482.055a3.285 3.285 0 0 0 3.066 2.275A6.597 6.597 0 0 1 0 12.133a9.313 9.313 0 0 0 5.032 1.469" clip-rule="evenodd"/></svg>